# xmcd CD database file
#
# Track frame offsets:
#	150
#	15546
#	29622
#	46322
#	64238
#	80464
#	98437
#	111178
#	124558
#	140419
#	153202
#
# Disc length: 2260 seconds
#
# Revision: 3
# Processed by: cddbd v1.5.2PL0 Copyright (c) Steve Scherf et al.
# Submitted via: CDex 1.51
#
DISCID=8308d20b
DTITLE=Jana Kramer - Jana Kramer
DYEAR=2012
DGENRE=Country
TTITLE0=Good Time Comin' On
TTITLE1=I Hope It Rains
TTITLE2=Why Ya Wanna
TTITLE3=Goodbye California
TTITLE4=Whiskey
TTITLE5=Over You By Now
TTITLE6=One Of The Boys
TTITLE7=What I Love About Your Love
TTITLE8=When You're Lonely
TTITLE9=King Of Apology
TTITLE10=Good As You Were Bad
EXTD=YEAR: 2012
EXTT0=
EXTT1=
EXTT2=
EXTT3=
EXTT4=
EXTT5=
EXTT6=
EXTT7=
EXTT8=
EXTT9=
EXTT10=
PLAYORDER=
